<mxfile host="app.diagrams.net" modified="2023-09-05T19:04:31.748Z" agent="Mozilla/5.0 (Windows NT 10.0; Win64; x64) AppleWebKit/537.36 (KHTML, like Gecko) Chrome/116.0.0.0 Safari/537.36" version="21.7.2" etag="bLxXDtHu3h9z-6UbK-1z" type="github">
  <diagram name="PÃ¡gina-1" id="_FiZw0triQw_Ir7Sot-a">
    <mxGraphModel>
      <root>
        <mxCell id="0" />
        <mxCell id="1" parent="0" />
      </root>
    </mxGraphModel>
  </diagram>
</mxfile>
